<svg width="400" height="300" viewBox="0 0 400 300" xmlns="http://www.w3.org/2000/svg">
  <defs>
    <linearGradient id="heroGradient" x1="0%" y1="0%" x2="100%" y2="100%">
      <stop offset="0%" style="stop-color:#4F46E5;stop-opacity:1" />
      <stop offset="50%" style="stop-color:#06B6D4;stop-opacity:1" />
      <stop offset="100%" style="stop-color:#10B981;stop-opacity:1" />
    </linearGradient>
    <radialGradient id="bgGradient" cx="50%" cy="50%" r="70%">
      <stop offset="0%" style="stop-color:#4F46E5;stop-opacity:0.1" />
      <stop offset="100%" style="stop-color:#06B6D4;stop-opacity:0.05" />
    </radialGradient>
  </defs>
  
  <!-- Background -->
  <rect width="400" height="300" fill="url(#bgGradient)"/>
  
  <!-- Abstract representation of Costa Rica -->
  <g transform="translate(50, 50)">
    <!-- Coastline/country outline -->
    <path d="M 0 80 Q 50 60 100 70 Q 150 75 200 80 Q 250 85 300 90 Q 280 120 250 130 Q 200 140 150 135 Q 100 130 50 125 Q 20 115 0 100 Z" 
          fill="url(#heroGradient)" opacity="0.3"/>
    
    <!-- Properties/Buildings -->
    <rect x="60" y="90" width="15" height="20" fill="url(#heroGradient)" opacity="0.8" rx="2"/>
    <rect x="120" y="85" width="18" height="25" fill="url(#heroGradient)" opacity="0.8" rx="2"/>
    <rect x="180" y="95" width="12" height="15" fill="url(#heroGradient)" opacity="0.8" rx="2"/>
    <rect x="240" y="88" width="20" height="22" fill="url(#heroGradient)" opacity="0.8" rx="2"/>
    
    <!-- Blockchain network connections -->
    <g stroke="url(#heroGradient)" stroke-width="2" fill="none" opacity="0.6">
      <line x1="67" y1="100" x2="129" y2="97"/>
      <line x1="138" y1="97" x2="186" y2="102"/>
      <line x1="192" y1="102" x2="250" y2="99"/>
      
      <!-- Network nodes -->
      <circle cx="67" cy="100" r="4" fill="url(#heroGradient)"/>
      <circle cx="129" cy="97" r="4" fill="url(#heroGradient)"/>
      <circle cx="186" cy="102" r="4" fill="url(#heroGradient)"/>
      <circle cx="250" cy="99" r="4" fill="url(#heroGradient)"/>
    </g>
    
    <!-- Digital elements -->
    <g transform="translate(80, 40)">
      <!-- Token symbols -->
      <circle cx="0" cy="0" r="8" fill="none" stroke="url(#heroGradient)" stroke-width="3" opacity="0.7"/>
      <circle cx="40" cy="-10" r="6" fill="none" stroke="url(#heroGradient)" stroke-width="2" opacity="0.7"/>
      <circle cx="80" cy="5" r="7" fill="none" stroke="url(#heroGradient)" stroke-width="2.5" opacity="0.7"/>
      <circle cx="120" cy="-5" r="5" fill="none" stroke="url(#heroGradient)" stroke-width="2" opacity="0.7"/>
      
      <!-- Connecting lines -->
      <line x1="8" y1="0" x2="32" y2="-10" stroke="url(#heroGradient)" stroke-width="1.5" opacity="0.5"/>
      <line x1="46" y1="-10" x2="73" y2="5" stroke="url(#heroGradient)" stroke-width="1.5" opacity="0.5"/>
      <line x1="87" y1="5" x2="115" y2="-5" stroke="url(#heroGradient)" stroke-width="1.5" opacity="0.5"/>
    </g>
  </g>
  
  <!-- Decorative elements -->
  <g opacity="0.4">
    <circle cx="350" cy="50" r="3" fill="#4F46E5"/>
    <circle cx="370" cy="80" r="2" fill="#06B6D4"/>
    <circle cx="340" cy="120" r="2.5" fill="#10B981"/>
    <circle cx="30" cy="40" r="2" fill="#4F46E5"/>
    <circle cx="20" cy="70" r="1.5" fill="#06B6D4"/>
  </g>
  
  <!-- Abstract data streams -->
  <g stroke="url(#heroGradient)" stroke-width="1" fill="none" opacity="0.3">
    <path d="M 320 150 Q 340 160 360 155 Q 380 150 395 158"/>
    <path d="M 10 200 Q 30 210 50 205 Q 70 200 90 208"/>
    <path d="M 300 220 Q 320 230 340 225 Q 360 220 380 228"/>
  </g>
</svg>